<svg xmlns="http://www.w3.org/2000/svg" xmlns:xlink="http://www.w3.org/1999/xlink" width="1920" height="5992" viewBox="0 0 1920 5992">
  <defs>
    <clipPath id="clip-Web_1">
      <rect width="1920" height="5992"/>
    </clipPath>
  </defs>
  <g id="Web_1" data-name="Web – 1" clip-path="url(#clip-Web_1)">
    <rect width="1920" height="5992" fill="#fff"/>
    <rect id="Rectángulo_102" data-name="Rectángulo 102" width="1928" height="6000" fill="#121212"/>
    <g id="Grupo_23" data-name="Grupo 23" transform="translate(-30 -1101)">
      <path id="Trazado_12" data-name="Trazado 12" d="M329.157,869.043S289.1,1048.1,316.966,1321.956s57.472,147.46,27.865,350.218-29.607,263.321,0,363.383,113.2,355.484,34.831,481.878,0,321.252,0,321.252,43.539,21.065,0,229.09-41.8,142.194,0,834.729c25.037,414.829-23.919,680.081-22.855,788.748.71,72.472-11.258,43.5-30.812,243.066C277.231,5432,402.032,5450.7,397.615,5515.764s-42.885,154.786-46.055,237.313c10.1,108.556-1.58,182.933,26.159,432.677,16.552,149.02,3.441,298.649,10.305,417.1,9.014,155.542,35.177,259.387,35.177,259.387" transform="translate(1388.541 231.957)" fill="none" stroke="#fff" stroke-width="1"/>
      <path id="Trazado_13" data-name="Trazado 13" d="M396.859,869.043S434.108,1048,408.2,1321.693s-53.445,147.374-25.913,350.014,40.934,292.211,13.4,392.215-40.808,172.236-15.01,315.412-30.783,458.209-30.783,458.209-40.488,21.053,0,228.957,38.869,142.112,0,834.244c-5.562,99.036,25.546,114.1,30.794,174.9,14.579,168.939,28.206,276.737,25.454,348.193-3.153,81.849-46.223,286.388-25.454,514.192,45.347,497.389,29.005,555.869-2.7,745.129s48.784,263.083,22.988,512.683c-35.63,344.751,49.148,673.2,49.148,673.2" transform="translate(1352.605 231.957)" fill="none" stroke="#fff" stroke-width="1"/>
      <path id="Trazado_14" data-name="Trazado 14" d="M19.666,0S4.484,161.127,32.349,434.822,93.664,705.336,64.057,907.976s-85.238,168.138-55.632,268.143,113.2,355.278,34.831,481.6,56.48,323.9,56.48,323.9,43.539,148.388,0,356.291c-37.749,180.252-34.012-49.221-13.4,364.388,3.2,64.111-23.553,243.153-17.994,335.206,41.8,692.133,42.832,470.289-5.932,967.679s12.009,459.2,7.591,524.219-14.557-58.411-14.557,223.18c0,77.719,9.009,23.726,5.762,108.236,10.1,108.5-26.535-28.874,1.2,220.725C100.729,5426.293,86.8,6000,86.8,6000" transform="translate(1808.914 7101) rotate(-180)" fill="none" stroke="#fff" stroke-width="1"/>
    </g>
  </g>
</svg>
